<svg width="69" height="69" viewBox="0 0 69 69" fill="none" xmlns="http://www.w3.org/2000/svg">
<g clip-path="url(#clip0_1_2918)">
<path d="M0 34.4736C-8.3257e-08 39.0039 0.8924 43.4899 2.62627 47.6752C4.36014 51.8606 6.90149 55.6634 10.1052 58.8665C13.3089 62.0696 17.1122 64.6102 21.2979 66.3432C25.4836 68.0763 29.9697 68.9679 34.5 68.967V34.4736" fill="black"/>
<path d="M34.5 34.4736C34.5 43.6218 38.1341 52.3954 44.6029 58.8641C51.0717 65.3329 59.8452 68.967 68.9934 68.967V34.4736" fill="black"/>
<path d="M0 0.00011063C0.00701199 9.1455 3.64492 17.9139 10.1142 24.3782C16.5834 30.8425 25.3546 34.4737 34.5 34.4737V-0.0263672" fill="black"/>
</g>
<defs>
<clipPath id="clip0_1_2918">
<rect width="69" height="69" fill="white"/>
</clipPath>
</defs>
</svg>
