<svg width="40" height="30" viewBox="0 0 40 30" fill="none" xmlns="http://www.w3.org/2000/svg">
<path d="M33.4772 2.50635C30.882 1.31755 28.1418 0.475005 25.327 0C24.9387 0.687045 24.5896 1.39537 24.2814 2.12191C21.2845 1.6683 18.2363 1.6683 15.2394 2.12191C14.9281 1.39681 14.5791 0.688654 14.1938 0C11.376 0.476545 8.63317 1.32189 6.036 2.51424C1.4329 9.02601 -0.649052 16.9878 0.177178 24.9194C3.19741 27.1521 6.57821 28.8501 10.1726 29.9399C10.9816 28.8503 11.6991 27.6955 12.3177 26.4875C11.1489 26.0491 10.0196 25.5116 8.94237 24.8807L9.77272 24.2579C12.8996 25.7288 16.3125 26.4916 19.7681 26.4916C23.2236 26.4916 26.6366 25.7288 29.7635 24.2579C30.0351 24.4834 30.312 24.691 30.5939 24.8807C29.5164 25.5162 28.3842 26.0539 27.2108 26.4875C27.8231 27.699 28.5409 28.8544 29.3559 29.9399C32.9503 28.8538 36.3313 27.1581 39.3513 24.9269C40.1727 16.9887 38.0855 9.02198 33.4772 2.50635ZM13.202 20.4135C12.2274 20.308 11.3262 19.8462 10.6714 19.1168C10.0166 18.3873 9.65446 17.4419 9.65446 16.4617C9.65446 15.4815 10.0166 14.5358 10.6714 13.8063C11.3262 13.0769 12.2274 12.6151 13.202 12.5096C13.697 12.5321 14.1825 12.6528 14.6304 12.8648C15.0783 13.0767 15.4795 13.3755 15.8108 13.744C16.1421 14.1125 16.3968 14.5432 16.5601 15.0111C16.7233 15.4789 16.7918 15.9746 16.7618 16.4692C16.7233 18.6452 15.1857 20.4135 13.202 20.4135ZM26.3266 20.4135C25.5266 20.4991 24.7194 20.3399 24.0118 19.957C23.3042 19.574 22.7294 18.9852 22.3635 18.2687C21.9976 17.5521 21.8578 16.7414 21.9625 15.9436C22.0672 15.1459 22.4115 14.399 22.9499 13.8011C23.4884 13.2032 24.1956 12.7826 24.9781 12.5952C25.7606 12.4078 26.5814 12.4622 27.3323 12.7514C28.0831 13.0405 28.7286 13.551 29.1832 14.2148C29.6379 14.8786 29.8805 15.6646 29.8788 16.4692C29.8788 18.6452 28.3411 20.4135 26.3266 20.4135Z" fill="white"/>
</svg>
