<svg width="103" height="34" viewBox="0 0 103 34" fill="none" xmlns="http://www.w3.org/2000/svg">
<path d="M68 34C72.596 34.0009 77.1471 33.1219 81.3934 31.4137C85.6398 29.7054 89.4982 27.2011 92.7484 24.0439C95.9985 20.8866 98.5767 17.1384 100.336 13.0129C102.095 8.88742 103 4.46548 103 0H68" fill="white"/>
<path d="M0 34C4.46463 34.0009 8.88572 33.1219 13.0108 31.4137C17.1358 29.7054 20.8839 27.2011 24.0412 24.0439C27.1985 20.8866 29.703 17.1384 31.4118 13.0129C33.1205 8.88742 34 4.46548 34 0H0" fill="white"/>
<path d="M69 0C69 9.01737 65.3125 17.6657 58.7488 24.0419C52.185 30.4182 43.2826 34 34 34V0" fill="white"/>
</svg>
